PathFileType	4	(X/Y/Z)	HSS_squat3.trc
DataRate	CameraRate	NumFrames	NumMarkers	Units	OrigDataRate	OrigDataStartFrame	OrigNumFrames
120.0	120.0	4	44	mm	120.0	365	972
Frame#	Time		R.Shoulder		Offset		L.Shoulder		R.Elbow		R.Wrist.Radial		R.Wrist		R.Hand		L.Elbow		L.Wrist.Radial		L.Wrist		L.Hand		R.Hip		V.Sacral		L.PSIS		L.Hip		R.Thigh.Upper		R.Thigh.Front		R.Thigh.Rear		X.Shell.Lower.Thigh.Right		R.Knee.Lateral		R.Shank.Upper		R.Shank.Front		R.Shank.Rear		X.Shell.Lower.Shank.Right		R.Ankle.Lateral		R.Heel		R.Toe		L.Thigh.Upper		L.Thigh.Front		L.Thigh.Rear		X.Shell.Lower.Thigh.Left		L.Knee.Lateral		L.Shank.Upper		L.Shank.Front		L.Shank.Rear		X.Shell.Lower.Shank.Left		L.Ankle.Lateral		L.Heel		L.Toe		R.Troc		L.Troc		R.PSIS		L.ASIS		R.ASIS
			X1	Y1	Z1	X2	Y2	Z2	X3	Y3	Z3	X4	Y4	Z4	X5	Y5	Z5	X6	Y6	Z6	X7	Y7	Z7	X8	Y8	Z8	X9	Y9	Z9	X10	Y10	Z10	X11	Y11	Z11	X12	Y12	Z12	X13	Y13	Z13	X14	Y14	Z14	X15	Y15	Z15	X16	Y16	Z16	X17	Y17	Z17	X18	Y18	Z18	X19	Y19	Z19	X20	Y20	Z20	X21	Y21	Z21	X22	Y22	Z22	X23	Y23	Z23	X24	Y24	Z24	X25	Y25	Z25	X26	Y26	Z26	X27	Y27	Z27	X28	Y28	Z28	X29	Y29	Z29	X30	Y30	Z30	X31	Y31	Z31	X32	Y32	Z32	X33	Y33	Z33	X34	Y34	Z34	X35	Y35	Z35	X36	Y36	Z36	X37	Y37	Z37	X38	Y38	Z38	X39	Y39	Z39	X40	Y40	Z40	X41	Y41	Z41	X42	Y42	Z42	X43	Y43	Z43	X44	Y44	Z44

365	3.03333	139.42836	1483.05005	-75.58170	-141.82716	1377.76489	27.70464	-193.38644	1497.82471	-82.35933	286.19971	1329.92041	-363.48526	54.42721	1405.99878	-483.44516	98.33936	1439.94653	-531.46368	12.44041	1453.88660	-552.31958	-346.76096	1350.86926	-372.87466	-109.54963	1389.04187	-492.20795	-149.56674	1435.39319	-530.41437	-61.04787	1432.03259	-545.22229	124.25052	1032.29468	-149.57297	-26.16576	1018.67432	-31.44582	-66.88482	1024.22888	-34.60400	-173.94370	1031.49194	-153.67444	178.82248	695.24249	-180.44283	166.82414	655.62445	-212.86342	190.42995	658.28290	-155.91188	176.19611	623.57019	-182.74678	170.39604	517.90070	-116.99171	231.58307	379.04257	-95.69613	213.89857	333.26828	-124.16194	221.50089	341.59015	-63.90004	218.51595	300.70517	-87.36204	189.94066	72.10192	-81.64778	142.45480	33.23244	-41.32957	201.31291	31.33941	-237.68173	-221.08430	694.91254	-193.96571	-203.44760	643.25928	-212.51570	-238.12268	660.77521	-163.10168	-229.35669	624.75439	-188.52173	-215.79121	509.79715	-118.75294	-274.50558	316.44287	-82.03792	-261.27884	291.13690	-110.33633	-263.87158	276.33856	-51.99501	-269.74713	246.06714	-74.72445	-240.84404	75.76108	-94.86324	-196.80576	34.72681	-41.71750	-241.35449	32.41440	-240.98701	161.31085	890.58221	-159.78325	-213.22583	900.78137	-154.43805	17.35307	1022.29504	-32.67966	-131.83073	997.31244	-219.36800	92.16478	995.27051	-211.53326
366	3.04167	139.38805	1483.08044	-75.69903	-141.85667	1377.76575	27.57252	-193.42755	1497.79260	-82.48364	286.17615	1329.86523	-363.55490	54.43492	1406.01501	-483.66031	98.38663	1439.99133	-531.62219	12.49285	1453.95081	-552.52875	-346.80099	1350.83496	-373.00806	-109.55981	1389.07263	-492.42657	-149.65193	1435.42920	-530.55951	-60.98489	1432.09448	-545.39526	124.22626	1032.29211	-149.63707	-26.11246	1018.67407	-31.69309	-66.87965	1024.23889	-34.66193	-173.94913	1031.48804	-153.77357	178.80774	695.23688	-180.52518	166.76476	655.59332	-212.96390	190.41701	658.28259	-156.00244	176.17798	623.54779	-182.78296	170.35664	517.88580	-117.00704	231.57004	379.05020	-95.72915	213.89061	333.27582	-124.13242	221.49057	341.59033	-63.94644	218.51340	300.70822	-87.40032	189.94966	72.10375	-81.67920	142.45879	33.23258	-41.35337	201.31656	31.34547	-237.67377	-221.07547	694.92346	-194.02013	-203.42969	643.24274	-212.56396	-238.10924	660.76422	-163.16547	-229.34018	624.75500	-188.59837	-215.78371	509.80560	-118.79328	-274.50107	316.44464	-82.09631	-261.30173	291.13144	-110.37701	-263.87708	276.34717	-52.04737	-269.74991	246.06265	-74.74599	-240.86800	75.77142	-94.86237	-196.79869	34.71976	-41.72097	-241.36035	32.42494	-240.99823	161.25415	890.54047	-159.89125	-213.21332	900.77783	-154.52176	17.32853	1022.30316	-32.75991	-131.86427	997.31006	-219.44948	92.19377	995.27441	-211.60739
367	3.05000	139.35796	1483.11841	-75.81692	-141.90784	1377.76477	27.46537	-193.46921	1497.74268	-82.58689	286.12009	1329.81311	-363.62177	54.42363	1406.04895	-483.87640	98.45757	1439.98743	-531.78955	12.56400	1454.02222	-552.79138	-346.84814	1350.78296	-373.12735	-109.51275	1389.15759	-492.57693	-149.72176	1435.46741	-530.70428	-60.96093	1432.18628	-545.54315	124.23147	1032.27490	-149.71925	-26.14904	1018.69391	-31.80019	-66.88792	1024.23352	-34.73330	-173.94850	1031.48621	-153.85793	178.79781	695.19434	-180.58154	166.74884	655.56366	-213.01292	190.39719	658.25513	-156.09245	176.17238	623.53290	-182.82419	170.36929	517.87628	-117.04045	231.54581	379.05511	-95.75623	213.89243	333.29813	-124.17050	221.48222	341.59296	-63.93513	218.50667	300.70358	-87.38317	189.93002	72.11076	-81.65879	142.44966	33.23139	-41.35114	201.29259	31.34296	-237.68398	-221.07974	694.89893	-194.07788	-203.40067	643.23224	-212.61070	-238.12305	660.75659	-163.25864	-229.32001	624.72443	-188.68843	-215.79370	509.79364	-118.84341	-274.51636	316.44009	-82.17165	-261.30573	291.13315	-110.39176	-263.90253	276.34271	-52.06401	-269.76187	246.05725	-74.78452	-240.82593	75.77045	-94.86183	-196.79849	34.71712	-41.71866	-241.37614	32.39918	-240.98657	161.24649	890.50226	-159.99281	-213.22000	900.77118	-154.59552	17.31685	1022.32605	-32.85011	-131.87016	997.28094	-219.56326	92.20484	995.23248	-211.68404
368	3.05833	139.32022	1483.13049	-75.95116	-141.96010	1377.75732	27.32201	-193.48776	1497.70276	-82.67895	286.08853	1329.74353	-363.70984	54.55491	1406.08679	-484.07913	98.59297	1440.00720	-532.00116	12.64039	1454.07263	-552.99915	-346.86337	1350.75928	-373.28986	-109.60289	1389.16846	-492.69995	-149.81073	1435.49768	-530.83643	-60.97814	1432.23926	-545.73914	124.24699	1032.24805	-149.84517	-26.12022	1018.71710	-31.98743	-66.88843	1024.24841	-34.81926	-173.93884	1031.47290	-153.97174	178.76872	695.18665	-180.65329	166.66095	655.52734	-213.09799	190.38214	658.23572	-156.16377	176.15903	623.50439	-182.87457	170.36636	517.87579	-117.06420	231.53712	379.05060	-95.72717	213.90106	333.27890	-124.18143	221.46718	341.60544	-63.92734	218.49606	300.70096	-87.39429	189.90753	72.10734	-81.66270	142.45561	33.22872	-41.35648	201.30623	31.31368	-237.66615	-221.06479	694.89752	-194.16476	-203.39279	643.22119	-212.72269	-238.11214	660.74738	-163.31711	-229.33374	624.71411	-188.79726	-215.80026	509.78592	-118.92098	-274.52408	316.43311	-82.18688	-261.29926	291.11508	-110.43528	-263.91238	276.33154	-52.11109	-269.77911	246.04507	-74.83838	-240.83942	75.75597	-94.90309	-196.78735	34.72185	-41.72294	-241.39200	32.41545	-241.04192	161.22906	890.48706	-160.06839	-213.20966	900.76129	-154.70261	17.31161	1022.33820	-32.95269	-131.88330	997.27539	-219.66571	92.21749	995.22693	-211.76001
